<svg width="279" height="279" viewBox="0 0 279 279" fill="none" xmlns="http://www.w3.org/2000/svg">
<path d="M179.978 176.537C167.976 163.682 176.73 142.542 194.319 141.936C194.429 141.936 194.539 141.936 194.622 141.936L278 139.514L194.622 137.091C194.512 137.091 194.402 137.091 194.319 137.091C176.757 136.486 168.004 115.345 179.978 102.491C180.06 102.408 180.115 102.325 180.198 102.27L237.426 41.6017L176.757 98.802C176.675 98.8845 176.62 98.9396 176.537 99.0222C163.682 110.996 142.542 102.243 141.936 84.6808C141.936 84.5707 141.936 84.4606 141.936 84.378L139.486 1L137.064 84.378C137.064 84.4881 137.064 84.5982 137.064 84.6808C136.458 102.243 115.318 110.996 102.463 99.0222C102.38 98.9396 102.298 98.8845 102.243 98.802L41.5742 41.5742L98.802 102.243C98.8845 102.325 98.9396 102.38 99.0222 102.463C111.024 115.318 102.27 136.458 84.6808 137.064C84.5707 137.064 84.4606 137.064 84.378 137.064L1 139.486L84.378 141.909C84.4881 141.909 84.5982 141.909 84.6808 141.909C102.243 142.514 110.996 163.655 99.0222 176.509C98.9396 176.592 98.8845 176.675 98.802 176.73L41.5742 237.426L102.243 180.198C102.325 180.115 102.38 180.06 102.463 179.978C115.318 167.976 136.458 176.73 137.064 194.319C137.064 194.429 137.064 194.539 137.064 194.622L139.486 278L141.909 194.622C141.909 194.512 141.909 194.402 141.909 194.319C142.514 176.757 163.655 168.004 176.509 179.978C176.592 180.06 176.675 180.115 176.73 180.198L237.398 237.426L180.198 176.757C180.115 176.675 180.033 176.62 179.978 176.537Z" stroke="black" stroke-width="2.0124" stroke-miterlimit="10"/>
</svg>
