<?xml version="1.0" standalone="no"?>
<!DOCTYPE svg PUBLIC "-//W3C//DTD SVG 20010904//EN"
 "http://www.w3.org/TR/2001/REC-SVG-20010904/DTD/svg10.dtd">
<svg version="1.0" xmlns="http://www.w3.org/2000/svg"
 width="510.000000pt" height="510.000000pt" viewBox="0 0 510.000000 510.000000"
 preserveAspectRatio="xMidYMid meet">
<metadata>
Created by potrace 1.14, written by Peter Selinger 2001-2017
</metadata>
<g transform="translate(0.000000,510.000000) scale(0.100000,-0.100000)"
fill="#000000" stroke="none">
<path d="M280 4075 l0 -714 1043 -3 1042 -3 56 -27 c41 -21 61 -38 80 -70 l24
-43 5 -1449 c4 -1135 8 -1450 17 -1453 10 -4 13 302 15 1439 l3 1443 21 45
c25 53 45 73 99 97 37 17 106 18 1083 21 l1042 3 0 714 0 715 -2265 0 -2265 0
0 -715z"/>
</g>
</svg>
